<?xml version="1.0" encoding="UTF-8" standalone="no"?>
<svg
   xmlns:dc="http://purl.org/dc/elements/1.1/"
   xmlns:cc="http://creativecommons.org/ns#"
   xmlns:rdf="http://www.w3.org/1999/02/22-rdf-syntax-ns#"
   xmlns:svg="http://www.w3.org/2000/svg"
   xmlns="http://www.w3.org/2000/svg"
   version="1.1"
   id="svg2"
   height="377.93823"
   width="377.95282">
  <defs
     id="defs4" />
  <metadata
     id="metadata7">
    <rdf:RDF>
      <cc:Work
         rdf:about="">
        <dc:format>image/svg+xml</dc:format>
        <dc:type
           rdf:resource="http://purl.org/dc/dcmitype/StillImage" />
        <dc:title></dc:title>
      </cc:Work>
    </rdf:RDF>
  </metadata>
  <g
     transform="translate(0,-674.42208)"
     id="layer1">
    <path
       id="rect3821"
       d="M 31.500056,674.42208 C 14.051459,674.42208 0,688.47146 0,705.92005 v 314.94225 c 0,17.4486 14.051459,31.498 31.500056,31.498 0.0042,0 0.0083,0 0.0125,0 h 47.208417 c 0.55025,0 1.096427,-0.014 1.639587,-0.042 0.533389,-0.027 1.063664,-0.066 1.589585,-0.1188 0.0049,-5e-4 0.0097,0 0.01458,0 0.525786,-0.053 1.046904,-0.1194 1.564586,-0.1979 0.0049,-7e-4 0.0097,0 0.01458,0 15.150672,-2.3024 26.691709,-15.3227 26.691709,-31.1354 V 997.24973 863.36407 828.69735 c 0,-23.3686 17.64151,-42.42213 40.38549,-44.71257 1.51162,-0.15175 3.04702,-0.23126 4.60001,-0.23126 h 67.49804 0.0146 c 0.77401,2.5e-4 1.54415,0.0199 2.30833,0.0583 0.005,2.3e-4 0.01,-2.5e-4 0.0146,0 23.83243,1.20494 42.66259,20.74287 42.66259,44.88549 v 34.66672 133.88566 23.61261 c 0,17.4486 14.05147,31.498 31.50005,31.498 0.004,0 0.008,0 0.0125,0 h 47.20842 c 0.55025,0 1.09643,-0.014 1.63959,-0.042 0.53338,-0.027 1.06367,-0.066 1.58958,-0.1188 0.005,-5e-4 0.01,0 0.0146,0 0.52578,-0.053 1.04692,-0.1194 1.56459,-0.1979 0.005,-7e-4 0.01,0 0.0146,0 15.15037,-2.3024 26.68964,-15.3227 26.68964,-31.1354 V 705.92005 c 0,-15.81278 -11.53927,-28.833 -26.68964,-31.13547 -0.004,-5.4e-4 -0.007,-0.002 -0.0104,-0.002 -10e-4,-2e-4 -0.003,2.1e-4 -0.004,0 -0.5176,-0.0787 -1.03887,-0.14458 -1.56459,-0.19791 -0.005,-4.9e-4 -0.01,-0.002 -0.0146,-0.002 -1.05663,-0.10669 -2.12906,-0.15992 -3.21459,-0.16041 H 346.4402 55.125098 55.110515 Z M 165.33571,808.2619 c -1.08561,0 -2.15787,0.0563 -3.21459,0.16249 -15.92742,1.60055 -28.2813,14.97044 -28.2813,31.33339 v 181.10032 c 0,14.7266 10.00856,27.0281 23.62088,30.5084 1.51251,0.3867 3.06765,0.6649 4.66042,0.825 0.52595,0.053 1.05615,0.094 1.58959,0.1208 0.005,3e-4 0.01,-2e-4 0.0146,0 0.53354,0.027 1.07004,0.042 1.61042,0.042 0.005,0 0.01,0 0.0146,0 h 47.22926 c 1.09054,0 2.1678,-0.055 3.22916,-0.1625 15.92745,-1.6006 28.2813,-14.9703 28.2813,-31.3334 V 839.75778 c 0,-16.36295 -12.35385,-29.73281 -28.2813,-31.33339 -0.52587,-0.0531 -1.05621,-0.0937 -1.58958,-0.12083 -0.005,-2.3e-4 -0.01,2.5e-4 -0.0146,0 -0.53347,-0.0269 -1.0701,-0.0414 -1.61042,-0.0417 h -0.0146 z"
       style="fill:#198472;fill-opacity:1;stroke:none;stroke-width:1.52367568" />
  </g>
</svg>
